<svg xmlns="http://www.w3.org/2000/svg" viewBox="0 0 410 404">
  <defs>
    <linearGradient x1="46.5%" y1="13.6%" x2="50.4%" y2="78.3%" id="a">
      <stop stop-color="#41D1FF" offset="0%" />
      <stop stop-color="#BD34FE" offset="100%" />
    </linearGradient>
    <linearGradient x1="50%" y1="0%" x2="50%" y2="100%" id="b">
      <stop stop-color="#FFF" offset="0%" />
      <stop stop-color="#FFF" stop-opacity="0" offset="100%" />
    </linearGradient>
  </defs>
  <path d="M255.153 37.938l-73.42 180.35c-.896 2.217-3.944 2.22-4.847.005L103.72 37.94c-1.013-2.464 1.506-4.92 3.83-3.495l66.32 40.99a2.5 2.5 0 0 0 2.492.041l76.9-41.155c2.343-1.253 4.87 1.294 3.82 3.77z" fill="url(#a)" />
  <path d="M312.14 0H97.86C43.84 0 0 43.816 0 97.798v206.203C0 357.772 43.84 401.59 97.86 401.59h214.28C366.16 401.59 410 357.772 410 303.801V97.799C410 43.817 366.16 0 312.14 0zm-96.072 284.26c-7.452 14.727-28.612 14.734-36.073.012L61.514 57.127c-7.36-14.534 7.38-30.218 22.39-24.328l97.997 38.75a17.5 17.5 0 0 0 12.675.013l100.84-39.267c15.017-5.843 29.716 9.865 22.303 24.386l-101.65 227.58z" fill="url(#b)" fill-opacity="0.8" />
</svg>
